<svg width="4096" height="4096" viewBox="0 0 4096 4096" fill="none" xmlns="http://www.w3.org/2000/svg">
  <rect width="4096" height="4096" rx="2048" fill="white"/>
  <path d="M1914.01 3.19968C1905.21 3.9996 1877.22 6.79932 1852.02 8.79913C1270.88 61.194 726.529 374.763 381.763 856.716C189.781 1124.69 66.9934 1428.66 20.598 1750.63C4.19957 1863.02 2.19977 1896.21 2.19977 2048.6C2.19977 2200.99 4.19957 2234.18 20.598 2346.57C131.787 3114.9 678.534 3760.43 1420.06 3999.61C1552.85 4042.41 1692.83 4071.6 1852.02 4089.2C1914.01 4096 2181.99 4096 2243.98 4089.2C2518.75 4058.8 2751.53 3990.81 2981.11 3873.62C3016.31 3855.62 3023.1 3850.82 3018.31 3846.82C3015.11 3844.42 2865.12 3643.24 2685.14 3400.07L2357.97 2958.11L1948.01 2351.37C1722.43 2017.8 1536.85 1745.03 1535.25 1745.03C1533.65 1744.63 1532.05 2014.2 1531.25 2343.37C1530.05 2919.72 1529.65 2942.91 1522.45 2956.51C1512.05 2976.11 1504.05 2984.11 1487.25 2992.91C1474.46 2999.31 1463.26 3000.51 1402.86 3000.51H1333.67L1315.27 2988.91C1303.27 2981.31 1294.47 2971.31 1288.47 2959.71L1280.07 2941.71L1280.87 2139.79L1282.07 1337.47L1294.47 1321.87C1300.87 1313.47 1314.47 1302.67 1324.07 1297.47C1340.47 1289.47 1346.87 1288.67 1416.06 1288.67C1497.65 1288.67 1511.25 1291.87 1532.45 1315.07C1538.45 1321.47 1760.43 1655.84 2026 2058.6C2291.58 2461.36 2654.74 3011.31 2833.12 3281.28L3157.09 3772.03L3173.49 3761.23C3318.68 3666.84 3472.26 3532.46 3593.85 3392.47C3852.62 3095.3 4019.41 2732.93 4075.4 2346.57C4091.8 2234.18 4093.8 2200.99 4093.8 2048.6C4093.8 1896.21 4091.8 1863.02 4075.4 1750.63C3964.21 982.304 3417.47 336.767 2675.94 97.5905C2545.15 55.1946 2405.97 25.9974 2249.98 8.39917C2211.58 4.39956 1947.21 -1.17054e-05 1914.01 3.19968V3.19968ZM2751.53 1240.68C2770.73 1250.28 2786.33 1268.68 2791.93 1287.87C2795.13 1298.27 2795.93 1520.65 2795.13 2021.8L2793.93 2740.93L2667.14 2546.55L2539.95 2352.17V1829.42C2539.95 1491.45 2541.55 1301.47 2543.95 1292.27C2550.35 1269.88 2564.35 1252.28 2583.55 1241.88C2599.95 1233.48 2605.95 1232.68 2668.74 1232.68C2727.93 1232.68 2738.33 1233.48 2751.53 1240.68V1240.68Z" fill="black"/>
  <path d="M3137.09 3780.83C3123.1 3789.63 3118.7 3795.63 3131.09 3788.83C3139.89 3783.63 3154.29 3772.83 3151.89 3772.43C3150.69 3772.43 3143.89 3776.43 3137.09 3780.83ZM3109.5 3798.83C3102.3 3804.43 3102.3 3804.83 3111.1 3800.43C3115.9 3798.03 3119.9 3795.23 3119.9 3794.43C3119.9 3791.23 3117.9 3792.03 3109.5 3798.83ZM3089.5 3810.83C3082.3 3816.43 3082.3 3816.83 3091.1 3812.43C3095.9 3810.03 3099.9 3807.23 3099.9 3806.43C3099.9 3803.23 3097.9 3804.03 3089.5 3810.83ZM3069.5 3822.83C3062.3 3828.43 3062.3 3828.83 3071.1 3824.43C3075.9 3822.03 3079.9 3819.23 3079.9 3818.43C3079.9 3815.23 3077.9 3816.03 3069.5 3822.83ZM3039.1 3838.83C3023.9 3846.82 3024.7 3850.02 3039.9 3842.42C3046.7 3838.83 3051.9 3835.23 3051.9 3834.43C3051.9 3831.63 3051.5 3832.03 3039.1 3838.83Z" fill="black"/>
</svg>
