<svg width="1536" height="1536" viewBox="0 0 1536 1536" fill="none" xmlns="http://www.w3.org/2000/svg">
<g clip-path="url(#clip0_2_5)">
<rect x="450" y="455" width="653" height="704" fill="white"/>
<rect x="565" y="1015.74" width="653" height="704" transform="rotate(-32.8009 565 1015.74)" fill="white"/>
<path d="M722.204 69.0936C719.196 69.367 709.627 70.324 701.014 71.0075C502.381 88.9159 316.325 196.093 198.485 360.823C132.867 452.415 90.8982 556.311 75.0403 666.359C69.4354 704.773 68.7519 716.12 68.7519 768.205C68.7519 820.289 69.4354 831.636 75.0403 870.05C113.044 1132.66 299.921 1353.3 553.373 1435.05C598.759 1449.68 646.606 1459.66 701.014 1465.68C722.204 1468 813.796 1468 834.986 1465.68C928.902 1455.29 1008.46 1432.05 1086.93 1391.99C1098.96 1385.84 1101.29 1384.2 1099.65 1382.83C1098.55 1382.01 1047.29 1313.25 985.772 1230.13L873.947 1079.07L733.824 871.691C656.722 757.678 593.291 664.445 592.744 664.445C592.197 664.309 591.65 756.448 591.377 868.956C590.967 1065.95 590.83 1073.88 588.369 1078.53C584.815 1085.22 582.081 1087.96 576.339 1090.97C571.965 1093.15 568.137 1093.56 547.494 1093.56H523.844L517.556 1089.6C513.455 1087 510.447 1083.58 508.397 1079.62L505.526 1073.47L505.799 799.373L506.209 525.143L510.447 519.811C512.634 516.94 517.282 513.249 520.563 511.472C526.168 508.738 528.356 508.464 552.006 508.464C579.893 508.464 584.541 509.558 591.787 517.487C593.837 519.674 669.709 633.96 760.481 771.622C851.254 909.285 975.382 1097.25 1036.35 1189.53L1147.08 1357.27L1152.69 1353.58C1202.31 1321.31 1254.81 1275.38 1296.37 1227.53C1384.81 1125.96 1441.82 1002.11 1460.96 870.05C1466.56 831.636 1467.25 820.289 1467.25 768.205C1467.25 716.12 1466.56 704.773 1460.96 666.359C1422.96 403.748 1236.08 183.106 982.628 101.356C937.925 86.8653 890.351 76.8858 837.036 70.8708C823.913 69.5037 733.55 68 722.204 69.0936V69.0936ZM1008.46 492.06C1015.03 495.341 1020.36 501.629 1022.27 508.191C1023.37 511.745 1023.64 587.754 1023.37 759.045L1022.96 1004.84L979.62 938.403L936.148 871.964V693.29C936.148 577.774 936.695 512.839 937.515 509.695C939.702 502.039 944.487 496.024 951.049 492.47C956.654 489.599 958.704 489.326 980.167 489.326C1000.4 489.326 1003.95 489.599 1008.46 492.06V492.06Z" fill="black"/>
<path d="M1140.25 1360.28C1135.47 1363.29 1133.96 1365.34 1138.2 1363.01C1141.21 1361.24 1146.13 1357.54 1145.31 1357.41C1144.9 1357.41 1142.57 1358.77 1140.25 1360.28ZM1130.82 1366.43C1128.36 1368.34 1128.36 1368.48 1131.36 1366.98C1133 1366.16 1134.37 1365.2 1134.37 1364.93C1134.37 1363.83 1133.69 1364.11 1130.82 1366.43ZM1123.98 1370.53C1121.52 1372.44 1121.52 1372.58 1124.53 1371.08C1126.17 1370.26 1127.54 1369.3 1127.54 1369.03C1127.54 1367.93 1126.85 1368.21 1123.98 1370.53ZM1117.15 1374.63C1114.69 1376.55 1114.69 1376.68 1117.69 1375.18C1119.33 1374.36 1120.7 1373.4 1120.7 1373.13C1120.7 1372.03 1120.02 1372.31 1117.15 1374.63ZM1106.76 1380.1C1101.56 1382.83 1101.83 1383.93 1107.03 1381.33C1109.35 1380.1 1111.13 1378.87 1111.13 1378.6C1111.13 1377.64 1110.99 1377.78 1106.76 1380.1Z" fill="black"/>
</g>
<defs>
<clipPath id="clip0_2_5">
<rect x="68" y="68" width="1400" height="1400" rx="700" fill="white"/>
</clipPath>
</defs>
</svg>
