<svg width="1400" height="1400" viewBox="0 0 1400 1400" fill="none" xmlns="http://www.w3.org/2000/svg">
<g clip-path="url(#clip0_3_6)">
<rect x="382" y="387" width="653" height="704" fill="white"/>
<rect x="497" y="947.744" width="653" height="704" transform="rotate(-32.8009 497 947.744)" fill="white"/>
<path d="M654.204 1.09362C651.196 1.36703 641.627 2.32397 633.014 3.00749C434.381 20.9159 248.325 128.093 130.485 292.823C64.8667 384.415 22.8982 488.311 7.04034 598.359C1.43542 636.773 0.751892 648.12 0.751892 700.205C0.751892 752.289 1.43542 763.636 7.04034 802.05C45.0444 1064.66 231.921 1285.3 485.373 1367.05C530.759 1381.68 578.606 1391.66 633.014 1397.68C654.204 1400 745.796 1400 766.986 1397.68C860.902 1387.29 940.465 1364.05 1018.93 1323.99C1030.96 1317.84 1033.29 1316.2 1031.65 1314.83C1030.55 1314.01 979.289 1245.25 917.772 1162.13L805.947 1011.07L665.824 803.691C588.722 689.678 525.291 596.445 524.744 596.445C524.197 596.309 523.65 688.448 523.377 800.956C522.967 997.949 522.83 1005.88 520.369 1010.53C516.815 1017.22 514.081 1019.96 508.339 1022.97C503.965 1025.15 500.137 1025.56 479.494 1025.56H455.844L449.556 1021.6C445.455 1019 442.447 1015.58 440.397 1011.62L437.526 1005.47L437.799 731.373L438.209 457.143L442.447 451.811C444.634 448.94 449.282 445.249 452.563 443.472C458.168 440.738 460.356 440.464 484.006 440.464C511.893 440.464 516.541 441.558 523.787 449.487C525.837 451.674 601.709 565.96 692.481 703.622C783.254 841.285 907.382 1029.25 968.353 1121.53L1079.08 1289.27L1084.69 1285.58C1134.31 1253.31 1186.81 1207.38 1228.37 1159.53C1316.81 1057.96 1373.82 934.107 1392.96 802.05C1398.56 763.636 1399.25 752.289 1399.25 700.205C1399.25 648.12 1398.56 636.773 1392.96 598.359C1354.96 335.748 1168.08 115.106 914.628 33.3561C869.925 18.8653 822.351 8.88582 769.036 2.87079C755.913 1.50374 665.55 -2.29771e-05 654.204 1.09362V1.09362ZM940.465 424.06C947.027 427.341 952.358 433.629 954.272 440.191C955.366 443.745 955.639 519.754 955.366 691.045L954.956 936.841L911.62 870.403L868.148 803.964V625.29C868.148 509.774 868.695 444.839 869.515 441.695C871.702 434.039 876.487 428.024 883.049 424.47C888.654 421.599 890.704 421.326 912.167 421.326C932.399 421.326 935.954 421.599 940.465 424.06V424.06Z" fill="black"/>
<path d="M1072.25 1292.28C1067.47 1295.29 1065.96 1297.34 1070.2 1295.01C1073.21 1293.24 1078.13 1289.54 1077.31 1289.41C1076.9 1289.41 1074.57 1290.77 1072.25 1292.28ZM1062.82 1298.43C1060.36 1300.34 1060.36 1300.48 1063.36 1298.98C1065 1298.16 1066.37 1297.2 1066.37 1296.93C1066.37 1295.83 1065.69 1296.11 1062.82 1298.43ZM1055.98 1302.53C1053.52 1304.44 1053.52 1304.58 1056.53 1303.08C1058.17 1302.26 1059.54 1301.3 1059.54 1301.03C1059.54 1299.93 1058.85 1300.21 1055.98 1302.53ZM1049.15 1306.63C1046.69 1308.55 1046.69 1308.68 1049.69 1307.18C1051.33 1306.36 1052.7 1305.4 1052.7 1305.13C1052.7 1304.03 1052.02 1304.31 1049.15 1306.63ZM1038.76 1312.1C1033.56 1314.83 1033.83 1315.93 1039.03 1313.33C1041.35 1312.1 1043.13 1310.87 1043.13 1310.6C1043.13 1309.64 1042.99 1309.78 1038.76 1312.1Z" fill="black"/>
</g>
<defs>
<clipPath id="clip0_3_6">
<rect width="1400" height="1400" rx="693.2" fill="white"/>
</clipPath>
</defs>
</svg>
